<?xml version="1.0" encoding="utf-8"?>
<!-- Generator: Adobe Illustrator 21.1.0, SVG Export Plug-In . SVG Version: 6.00 Build 0)  -->
<svg version="1.1" id="Layer_1" xmlns="http://www.w3.org/2000/svg" xmlns:xlink="http://www.w3.org/1999/xlink" x="0px" y="0px"
	 viewBox="0 0 50 50" style="enable-background:new 0 0 50 50;" xml:space="preserve">
<style type="text/css">
	.st0{fill:#AA56D2;}
</style>
<path class="st0" d="M34,23h-2v-4c0-3.9-3.1-7-7-7s-7,3.1-7,7v4h-2v-4c0-5,4-9,9-9s9,4,9,9V23z"/>
<path class="st0" d="M33,40H17c-1.7,0-3-1.3-3-3V25c0-1.7,1.3-3,3-3h16c1.7,0,3,1.3,3,3v12C36,38.7,34.7,40,33,40z M17,24
	c-0.6,0-1,0.4-1,1v12c0,0.6,0.4,1,1,1h16c0.6,0,1-0.4,1-1V25c0-0.6-0.4-1-1-1H17z"/>
<circle class="st0" cx="25" cy="29" r="2"/>
<path class="st0" d="M25.5,29h-1l-1,6h3L25.5,29z"/>
</svg>
