<?xml version="1.0" encoding="utf-8"?>
<!-- Generator: Adobe Illustrator 21.1.0, SVG Export Plug-In . SVG Version: 6.00 Build 0)  -->
<svg version="1.1"
	 id="svg2" xmlns:cc="http://creativecommons.org/ns#" xmlns:dc="http://purl.org/dc/elements/1.1/" xmlns:rdf="http://www.w3.org/1999/02/22-rdf-syntax-ns#" xmlns:svg="http://www.w3.org/2000/svg"
	 xmlns="http://www.w3.org/2000/svg" xmlns:xlink="http://www.w3.org/1999/xlink" x="0px" y="0px" viewBox="0 0 258.7 258.7"
	 style="enable-background:new 0 0 258.7 258.7;" xml:space="preserve">
<style type="text/css">
	.st0{fill:#FFFFFF;}
	.st1{fill:#0272A6;}
</style>
<g id="g10" transform="matrix(1.3333333,0,0,-1.3333333,0,258.66667)">
	<g id="g12" transform="scale(0.1)">
		<path id="path14" class="st0" d="M2.6,1933.2h1927.6V5.7H2.6V1933.2"/>
		<path id="path18" class="st1" d="M1800.8,728.7c0-41.4-26.2-60.7-73.1-60.7H1638v41.4h89.7c8.3,0,15.2,1.4,17.9,4.1
			c2.8,2.8,5.5,6.9,5.5,12.4c0,5.5-2.8,11-5.5,13.8c-2.8,2.8-8.3,4.1-16.6,4.1c-42.8,1.4-96.6-1.4-96.6,59.3
			c0,27.6,17.9,57.9,66.2,57.9h92.4v-41.4h-85.5c-8.3,0-13.8,0-17.9-2.8c-4.1-4.1-6.9-8.3-6.9-15.2c0-6.9,4.1-11,9.7-13.8
			c5.5-1.4,11-2.8,17.9-2.8h24.8c26.2,0,42.8-5.5,53.8-15.2C1795.3,760.5,1800.8,748,1800.8,728.7z M1606.3,770.1
			c-11,9.7-27.6,15.2-53.8,15.2h-24.8c-6.9,0-12.4,1.4-17.9,2.8c-5.5,2.8-9.7,6.9-9.7,13.8c0,6.9,1.4,11,6.9,15.2
			c4.1,2.8,9.7,2.8,17.9,2.8h85.5v41.4H1518c-49.7,0-66.2-30.3-66.2-57.9c0-60.7,53.8-57.9,96.6-59.3c8.3,0,13.8-1.4,16.6-4.1
			c2.8-2.8,5.5-8.3,5.5-13.8c0-5.5-2.8-9.7-5.5-12.4c-4.1-2.8-9.7-4.1-17.9-4.1h-89.7V668h89.7c46.9,0,73.1,19.3,73.1,60.7
			C1620.1,748,1614.6,760.5,1606.3,770.1L1606.3,770.1z M1429.7,708h-109v38.6h106.2v38.6h-106.2v35.9h109v40h-154.5V668h154.5V708z
			 M1225.5,851.5c-15.2,8.3-33.1,9.7-56.6,9.7h-106.2V668h46.9v70.4h49.7c16.6,0,26.2-1.4,33.1-8.3c8.3-9.7,8.3-26.2,8.3-38.6V668
			h45.5v37.2c0,17.9-1.4,26.2-6.9,35.9c-4.1,5.5-12.4,12.4-23.4,16.6c12.4,4.1,33.1,20.7,33.1,51
			C1249,830.8,1240.7,843.2,1225.5,851.5L1225.5,851.5z M963.4,861.2H815.8l-59.3-63.5l-56.6,63.5H513.7V668h183.5l59.3,63.5
			l56.6-63.5h89.7v64.8h57.9c40,0,80,11,80,64.8C1040.7,850.1,999.3,861.2,963.4,861.2z M1188.3,781.1c-6.9-2.8-13.8-2.8-22.1-2.8
			l-56.6-1.4v44.1h56.6c8.3,0,16.6,0,22.1-4.1c5.5-2.8,9.7-8.3,9.7-16.6S1193.8,785.3,1188.3,781.1z M963.4,771.5h-60.7v49.7h60.7
			c16.6,0,27.6-6.9,27.6-23.5C991,781.1,980,771.5,963.4,771.5z M785.5,764.6l71.7,75.9V684.6L785.5,764.6z M673.7,708H559.2v38.6
			h102.1v38.6H559.2v35.9h115.9l51-56.6L673.7,708z M1672.5,1000.5h-66.2l-86.9,144.9v-144.9h-93.8l-17.9,42.8h-96.6l-17.9-42.8
			h-53.8c-22.1,0-51,5.5-67.6,22.1c-15.2,16.6-23.4,38.6-23.4,73.1c0,29,4.1,55.2,24.8,75.9c13.8,15.2,38.6,22.1,70.3,22.1h44.2
			v-41.4h-44.2c-16.6,0-26.2-2.8-35.9-11c-8.3-8.3-12.4-23.5-12.4-44.2c0-20.7,4.1-35.9,12.4-45.5c6.9-6.9,19.3-9.7,31.7-9.7h20.7
			l66.2,151.8h69l77.3-182.1v182.1h71.7l81.4-133.8v133.8h46.9L1672.5,1000.5z M1124.8,1193.6h-46.9v-193.1h46.9V1193.6z
			 M1026.9,1185.3c-15.2,8.3-31.7,8.3-55.2,8.3H865.5v-193.1H911v70.4h49.7c16.6,0,27.6-1.4,34.5-8.3c8.3-9.7,6.9-26.2,6.9-37.2
			v-24.8h46.9v38.6c0,16.6-1.4,24.8-8.3,34.5c-4.1,5.5-12.4,12.4-22.1,16.6c12.4,5.5,33.1,20.7,33.1,51.1
			C1051.7,1163.3,1042.1,1175.7,1026.9,1185.3L1026.9,1185.3z M832.4,1040.5H724.8v38.6H831v40H724.8v34.5h107.6v40H677.9v-193.1
			h154.5V1040.5z M643.4,1193.6h-75.9l-56.6-131.1l-60.7,131.1h-74.5v-182.1l-78.6,182.1h-69l-82.8-193.1H195l17.9,42.8h96.6
			l17.9-42.8h93.8v151.8l67.6-151.8h40l67.6,151.8v-151.8h46.9L643.4,1193.6z M1391.1,1084.6l-31.7,75.9l-31.7-75.9H1391.1z
			 M991,1115c-6.9-4.1-13.8-4.1-23.5-4.1H911v42.8h56.6c8.3,0,17.9,0,23.5-2.8c5.5-4.1,8.3-9.7,8.3-17.9S996.5,1117.7,991,1115z
			 M229.5,1084.6l31.7,75.9l31.7-75.9H229.5z M1789.7,1799.2H144V1104l56.6,128.3h120l16.6-31.7v31.7h140.7l31.7-69l30.3,69h448.3
			c20.7,0,38.6-4.1,52.4-15.2v15.2h122.8v-15.2c20.7,11,46.9,15.2,77.3,15.2h178l16.6-31.7v31.7h131.1l19.3-31.7v31.7h128.3V961.9
			h-129.7l-24.8,41.4v-41.4H1398L1380,1006h-40l-17.9-44.1h-84.2c-33.1,0-57.9,8.3-74.5,16.6v-16.6h-200v62.1c0,8.3-1.4,9.7-6.9,9.7
			h-6.9v-71.7H563.4v34.5l-13.8-34.5h-81.4L454.4,995v-33.1H298.5L282,1006h-40L224,961.9h-80V146.6h1645.7v495.2
			c-17.9-8.3-42.8-12.4-67.6-12.4h-120V646c-13.8-11-38.6-16.6-62.1-16.6h-378v62.1c0,8.3-1.4,8.3-8.3,8.3h-6.9v-70.4h-124.2v73.1
			c-20.7-9.7-44.1-9.7-64.8-9.7h-13.8v-63.5H792.4l-35.9,41.4l-40-41.4H472.3v270.4h248.3l35.9-41.4l38.6,41.4H962
			c19.3,0,51-2.8,64.8-16.6v16.6h149c15.2,0,44.1-2.8,63.4-16.6v16.6h224.9v-16.6c12.4,11,35.9,16.6,56.6,16.6h125.5v-16.6
			c13.8,9.7,33.1,16.6,57.9,16.6h85.5V1799.2"/>
	</g>
</g>
</svg>
