<?xml version="1.0" encoding="utf-8"?>
<!-- Generator: Adobe Illustrator 21.1.0, SVG Export Plug-In . SVG Version: 6.00 Build 0)  -->
<svg version="1.1"
	 id="svg2" xmlns:cc="http://creativecommons.org/ns#" xmlns:dc="http://purl.org/dc/elements/1.1/" xmlns:rdf="http://www.w3.org/1999/02/22-rdf-syntax-ns#" xmlns:svg="http://www.w3.org/2000/svg"
	 xmlns="http://www.w3.org/2000/svg" xmlns:xlink="http://www.w3.org/1999/xlink" x="0px" y="0px" viewBox="0 0 213.7 317.9"
	 style="enable-background:new 0 0 213.7 317.9;" xml:space="preserve">
<style type="text/css">
	.st0{fill:#2E3192;}
</style>
<g id="g10" transform="matrix(1.3333333,0,0,-1.3333333,0,258.66667)">
	<g id="g12" transform="scale(0.1)">
		<path id="path16" class="st0" d="M801.4,1542.5L12.9,1014l328.2-213.1l392.1,264.3l-155.5,102.2l213,142.7l462.3-306.8l0,0
			L494.6,494.1l164-108.6l943.8,628.5l-2.1,2.1L801.4,1542.5"/>
		<path id="path18" class="st0" d="M1587.7,1542.3L1259.6,1325l164.1-110.8l164,110.8V1542.3"/>
		<path id="path20" class="st0" d="M7.5-46.6l328.1,217.3L171.5,281.5L7.5,170.7V-46.6"/>
		<path id="path22" class="st0" d="M801-46.1l788.5,528.5l-328.2,213.1L869.2,431.2L1024.7,329l-213-142.7L349.4,493.1l0,0
			l758.4,509.2L943.7,1111L0,482.5l2.1-2.1L801-46.1"/>
	</g>
</g>
</svg>
