<?xml version="1.0" encoding="utf-8"?>
<!-- Generator: Adobe Illustrator 21.1.0, SVG Export Plug-In . SVG Version: 6.00 Build 0)  -->
<svg version="1.1"
	 id="svg2" xmlns:cc="http://creativecommons.org/ns#" xmlns:dc="http://purl.org/dc/elements/1.1/" xmlns:rdf="http://www.w3.org/1999/02/22-rdf-syntax-ns#" xmlns:svg="http://www.w3.org/2000/svg"
	 xmlns="http://www.w3.org/2000/svg" xmlns:xlink="http://www.w3.org/1999/xlink" x="0px" y="0px" viewBox="0 0 646 496.7"
	 style="enable-background:new 0 0 646 496.7;" xml:space="preserve">
<style type="text/css">
	.st0{fill:#2656A0;}
	.st1{fill:#FFFFFF;}
</style>
<g id="g10" transform="matrix(1.3333333,0,0,-1.3333333,0,1728)">
	<g id="g12" transform="scale(0.1)">
		<path id="path14" d="M347.4,10690.9h266.2c236.9,0,300.8-165.8,300.8-274c0-208.1-141.7-378.5-444.5-378.5H209.2v16.5
			c50.5,9.3,65.9,12.4,83.4,76.2l122.7,435.2c3.1,11.3,11.3,43.3,11.3,63.9c0,35-26.8,40.2-79.3,44.3L347.4,10690.9"/>
		<path id="path16" d="M1138.8,10144.5c-40.2-60.8-85.5-117.4-143.2-117.4c-48.4,0-48.4,45.3-48.4,63.9
			c0,48.4,81.4,303.9,81.4,332.7c0,21.6-8.2,26.8-64.9,26.8v16.5c39.1,2.1,124.6,18.5,164.8,25.8l3.1-2.1l-90.6-331.7
			c-4.1-14.4-16.5-55.6-16.5-68c0-7.2,7.2-15.5,16.5-15.5c12.4,0,42.2,20.6,84.5,80.3L1138.8,10144.5"/>
		<path id="path18" d="M1118.1,10602.8c-25.8,0-49.5,17.5-49.5,53.6c0,36.1,23.7,55.6,48.4,55.6c34,0,51.5-34,51.5-56.7
			C1168.6,10634.8,1152.1,10602.8,1118.1,10602.8"/>
		<path id="path20" d="M1622.8,10145.5c-51.5-69-87.6-116.4-143.2-116.4c-47.4,0-49.4,30.9-49.4,60.8c0,24.7,76.2,276.1,76.2,317.3
			c0,18.5-6.2,33-25.8,33c-49.4,0-114.3-88.6-151.4-146.3c-47.4-71.1-60.8-115.4-103-255.5H1149c31.9,116.4,101,357.4,101,379.1
			c0,15.5-10.3,26.8-65.9,26.8v16.5c55.6,10.3,111.3,20.6,166.9,31.9l3.1-2.1l-65.9-215.3l2.1-2.1
			c48.4,76.2,143.2,219.4,228.7,219.4c47.4,0,71.1-24.7,71.1-68c0-44.3-82.4-298.7-82.4-329.6c0-15.5,14.4-17.5,16.5-17.5
			c20.6,0,46.4,33,84.5,81.4L1622.8,10145.5"/>
		<path id="path22" d="M1986.4,10138.3c-11.3-16.5-105.1-111.3-208.1-111.3c-108.2,0-141.1,80.3-141.1,145.2
			c0,147.3,162.8,320.3,308,320.3c52.5,0,84.5-24.7,84.5-70c0-81.4-96.8-164.8-263.7-188.5l-28.8-4.1c-5.1-21.6-10.3-42.2-10.3-62.8
			c0-70,53.6-93.7,96.8-93.7c55.6,0,98.9,35,150.4,77.3L1986.4,10138.3"/>
		<path id="path24" d="M2020.3,10038.4l83.4,300.8c10.3,38.1,16.5,73.1,16.5,82.4c0,14.4-5.1,30.9-37.1,30.9
			c-11.3,0-22.7-3.1-34-5.1v17.5c52.5,7.2,113.3,20.6,159.7,27.8l3.1-2.1l-50.5-205l2.1-2.1l8.2,20.6c34,68,112.3,188.5,177.2,188.5
			c23.7,0,49.4-15.5,49.4-50.5c0-53.6-37.1-53.6-48.4-53.6c-44.3,0-28.8,37.1-53.6,37.1c-31.9,0-93.7-114.3-102-129.8
			c-39.1-74.2-53.6-120.5-95.8-257.5L2020.3,10038.4"/>
		<path id="path26" d="M2351.7,10188.8c7.2-45.3,23.7-140.1,107.1-140.1c57.7,0,74.2,49.5,74.2,83.4c0,68-122.6,166.9-122.6,246.2
			c0,31.9,14.4,114.3,123.6,114.3c46.4,0,67-17.5,97.9-17.5c17.5,0,23.7,10.3,28.8,18.5h14.4l-20.6-143.2H2638
			c-5.2,58.7-29.9,118.5-96.8,118.5c-22.7,0-55.6-9.3-55.6-59.7c0-64.9,125.7-156.6,125.7-244.1c0-112.3-95.8-138-153.5-138
			c-30.9,0-72.1,19.6-102,19.6c-14.4,0-18.5-10.3-24.7-21.6h-16.5l20.6,163.8H2351.7"/>
		<path id="path28" d="M3484.5,10520.4c-2,28.8-11.3,166.9-158.6,166.9c-206,0-311.1-249.3-311.1-400.7
			c0-134.9,56.6-220.4,179.2-220.4c116.4,0,188.5,73.1,237.9,121.5l17.5-14.4c-38.1-45.3-129.8-153.5-280.2-153.5
			c-119.5,0-269.9,72.1-269.9,278.1c0,198.8,182.3,426.4,418.2,426.4c74.2,0,137-24.7,160.7-24.7c29.9,0,36.1,12.4,41.2,22.7h21.6
			l-38.1-205L3484.5,10520.4"/>
		<path id="path30" d="M3718.5,10155.8c-52.5-79.3-92.7-128.8-156.6-128.8c-45.3,0-49.5,35-49.5,63.9c0,21.6,149.4,559.3,149.4,581
			c0,26.8-43.3,26.8-70,25.8v16.5c53.6,6.2,107.1,15.5,160.7,27.8l5.1-5.1l-155.5-596.4c-2-9.3-10.3-37.1-10.3-48.4
			c0-6.2,0-20.6,15.4-20.6c25.8,0,47.4,28.9,97.9,93.8L3718.5,10155.8"/>
		<path id="path32" d="M4185.3,10149.6c-64.9-93.7-91.7-120.5-143.2-120.5c-46.4,0-48.4,38.1-48.4,53.6
			c0,18.5,20.6,105.1,44.3,189.5h-3.1c-70-116.4-146.3-245.2-239-245.2c-37.1,0-56.6,15.5-56.6,60.8c0,45.3,78.3,304.9,78.3,332.7
			c0,29.9-19.6,29.9-61.8,29.9v14.4c51.5,6.2,103,15.5,154.5,27.8l3.1-2.1l-93.7-373.9c-3.1-13.4,0-35,21.6-35
			c44.3,0,109.2,96.8,144.2,150.4c50.5,76.2,73.1,141.1,113.3,251.3h76.2l-81.4-308c-6.2-20.6-19.6-65.9-19.6-81.4
			c0-5.1,1-16.5,12.4-16.5c19.6,0,48.4,36,84.5,81.4L4185.3,10149.6"/>
		<path id="path34" d="M4280.1,10718.2c51.5,6.2,104,13.4,157.6,23.7l5.2-5.2c-22.7-84.5-54-199.6-89-316l2.1-1
			c34,53.6,86.8,105.1,179.5,105.1c72.1,0,118.6-81.6,118.6-156.8c0-162.8-172-341-329.6-341c-54.6,0-133.9,31.9-133.9,54.6v4.1
			l140.1,516.1c7.2,28.8,16.5,54.6,16.5,69c0,23.7-7.2,28.8-67,29.9L4280.1,10718.2"/>
		<path id="path36" d="M0,9262.2c50.5,9.3,65.9,12.3,83.4,76.2l122.7,431.1c6.2,20.6,11.3,45.3,11.3,63.9c0,36-27.8,39.1-72.1,44.3
			v16.5h254.4v-16.5c-50.5-9.3-67-11.3-84.5-76.2l-122.7-432.2c-6.2-20.6-11.3-41.2-11.3-65.9c0-33,25.8-36,70-41.2v-16.5H0V9262.2"
			/>
		<path id="path38" d="M791,9352.9c-51.5-69-87.6-116.4-143.2-116.4c-47.4,0-49.5,30.9-49.5,60.8c0,24.7,76.2,276,76.2,317.3
			c0,18.5-6.2,33-25.8,33c-49.4,0-114.3-88.6-151.4-146.3c-47.4-71.1-60.8-115.4-103-255.5h-77.3
			c31.9,116.4,100.9,357.4,100.9,379.1c0,15.5-10.3,26.8-65.9,26.8v16.5c55.6,10.3,111.2,20.6,166.9,31.9l3.1-2.1l-65.9-215.3
			l2.1-2.1c48.4,76.2,143.2,219.4,228.7,219.4c47.4,0,71.1-24.7,71.1-68c0-44.3-82.4-298.7-82.4-329.6c0-15.5,14.4-17.5,16.5-17.5
			c20.6,0,46.4,33,84.5,81.4L791,9352.9"/>
		<path id="path40" d="M1065.2,9653.6h-86.5l-90.6-343c-1-3.1-1-5.2-1-8.2c0-9.3,5.1-17.5,16.5-17.5c20.6,0,56.7,48.4,82.4,81.4
			l13.4-7.2c-52.5-79.3-92.7-124.6-146.3-124.6c-20.6,0-49.5,10.3-49.5,41.2c0,15.5,19.6,78.3,23.7,94.8l74.2,283.3h-76.2
			c-1,6.2-1,11.3,2,16.5c6.2,9.3,35,16.5,52.5,25.8c34,17.5,83.4,63.9,112.3,99.9c4.1,5.2,8.2,14.4,17.5,12.4
			c7.2,2.1,9.3-7.2,7.2-15.5l-28.8-106.1h82.4L1065.2,9653.6"/>
		<path id="path42" d="M1384.4,9345.7c-11.3-16.5-105.1-111.2-208.1-111.2c-108.1,0-141.1,80.3-141.1,145.2
			c0,147.3,162.8,320.3,308,320.3c52.5,0,84.5-24.7,84.5-70c0-81.4-96.8-164.8-263.7-188.5l-28.9-4.1c-5.1-21.6-10.3-42.2-10.3-62.8
			c0-70,53.6-93.7,96.8-93.7c55.6,0,98.9,35,150.4,77.3L1384.4,9345.7"/>
		<path id="path44" d="M1422.3,9245.7l83.4,300.8c10.3,38.1,16.5,73.1,16.5,82.4c0,14.4-5.1,30.9-37.1,30.9c-11.3,0-22.7-3.1-34-5.1
			v17.5c52.5,7.2,113.3,20.6,159.7,27.8l3.1-2.1l-50.5-205l2.1-2.1l8.2,20.6c34,68,112.3,188.5,177.2,188.5
			c23.7,0,49.5-15.5,49.5-50.5c0-53.6-37.1-53.6-48.4-53.6c-44.3,0-28.9,37.1-53.6,37.1c-31.9,0-93.7-114.3-102-129.8
			c-39.1-74.2-53.6-120.5-95.8-257.5L1422.3,9245.7"/>
		<path id="path46" d="M2248.7,9352.9c-51.5-69-87.6-116.4-143.2-116.4c-47.4,0-49.5,30.9-49.5,60.8c0,24.7,76.2,276,76.2,317.3
			c0,18.5-6.2,33-25.7,33c-49.5,0-114.4-88.6-151.4-146.3c-47.4-71.1-60.8-115.4-103-255.5h-77.3c31.9,116.4,101,357.4,101,379.1
			c0,15.5-10.3,26.8-65.9,26.8v16.5c55.6,10.3,111.2,20.6,166.9,31.9l3.1-2.1l-65.9-215.3l2.1-2.1
			c48.4,76.2,143.2,219.4,228.7,219.4c47.4,0,71.1-24.7,71.1-68c0-44.3-82.4-298.7-82.4-329.6c0-15.5,14.4-17.5,16.5-17.5
			c20.6,0,46.4,33,84.5,81.4L2248.7,9352.9"/>
		<path id="path48" d="M2721.5,9348.8c-61.8-76.2-96.8-113.3-141.1-113.3c-43.3,0-43.3,26.8-43.3,44.3c0,23.7,5.1,46.3,21.6,109.2
			l-2.1,2.1c-85.5-125.7-140.1-156.6-201.9-156.6c-103,0-106.1,91.7-106.1,121.5c0,151.4,157.6,344,294.6,344
			c44.3,0,78.3-26.8,81.4-55.6h2l10.3,45.3l3.1,3.1l62.8,7.2l7.2-3.1c-3.1-12.4-97.9-363.6-97.9-395.5c0-7.2,6.2-13.4,14.4-13.4
			c15.5,0,36.1,25.8,82.4,71.1L2721.5,9348.8"/>
		<path id="path50" d="M2981.6,9653.6h-86.5l-90.7-343c-1-3.1-1-5.2-1-8.2c0-9.3,5.2-17.5,16.5-17.5c20.6,0,56.6,48.4,82.4,81.4
			l13.4-7.2c-52.5-79.3-92.7-124.6-146.3-124.6c-20.6,0-49.4,10.3-49.4,41.2c0,15.5,19.6,78.3,23.7,94.8l74.2,283.3h-76.2
			c-1,6.2-1,11.3,2.1,16.5c6.2,9.3,35,16.5,52.5,25.8c34,17.5,83.4,63.9,112.3,99.9c4.1,5.2,8.3,14.4,17.5,12.4
			c7.2,2.1,9.3-7.2,7.2-15.5l-28.9-106.1h82.4L2981.6,9653.6"/>
		<path id="path52" d="M3198,9351.8c-40.2-60.8-85.5-117.4-143.2-117.4c-48.4,0-48.4,45.3-48.4,63.9c0,48.4,81.4,303.9,81.4,332.7
			c0,21.6-8.2,26.8-64.9,26.8v16.5c39.1,2.1,124.6,18.5,164.8,25.7l3.1-2.1l-90.6-331.7c-4.1-14.4-16.5-55.6-16.5-68
			c0-7.2,7.2-15.5,16.5-15.5c12.4,0,42.2,20.6,84.5,80.3L3198,9351.8"/>
		<path id="path54" d="M3177.4,9810.2c-25.8,0-49.5,17.5-49.5,53.6c0,36.1,23.7,55.6,48.4,55.6c34,0,51.5-34,51.5-56.7
			C3227.9,9842.1,3211.4,9810.2,3177.4,9810.2"/>
		<path id="path56" d="M3667.9,9547.6c0-126.7-141.1-313.1-298.7-313.1c-109.2,0-155.5,62.8-155.5,148.3
			c0,151.4,152.4,317.3,302.8,317.3C3635.9,9700,3667.9,9615.5,3667.9,9547.6"/>
		<path id="path58" d="M4112.6,9352.9c-51.5-69-87.6-116.4-143.2-116.4c-47.4,0-49.5,30.9-49.5,60.8c0,24.7,76.2,276,76.2,317.3
			c0,18.5-6.2,33-25.8,33c-49.5,0-114.3-88.6-151.4-146.3c-47.4-71.1-60.8-115.4-103-255.5h-77.3c31.9,116.4,101,357.4,101,379.1
			c0,15.5-10.3,26.8-65.9,26.8v16.5c55.6,10.3,111.2,20.6,166.9,31.9l3.1-2.1l-65.9-215.3l2.1-2.1
			c48.4,76.2,143.2,219.4,228.7,219.4c47.4,0,71.1-24.7,71.1-68c0-44.3-82.4-298.7-82.4-329.6c0-15.5,14.4-17.5,16.5-17.5
			c20.6,0,46.4,33,84.5,81.4L4112.6,9352.9"/>
		<path id="path60" d="M4589.4,9348.8c-61.8-76.2-96.8-113.3-141.1-113.3c-43.3,0-43.3,26.8-43.3,44.3c0,23.7,5.2,46.3,21.6,109.2
			l-2.1,2.1c-85.5-125.7-140.1-156.6-201.9-156.6c-103,0-106.1,91.7-106.1,121.5c0,151.4,157.6,344,294.6,344
			c44.3,0,78.3-26.8,81.4-55.6h2.1l10.3,45.3l3.1,3.1l62.8,7.2l7.2-3.1c-3.1-12.4-97.9-363.6-97.9-395.5c0-7.2,6.2-13.4,14.4-13.4
			c15.5,0,36,25.8,82.4,71.1L4589.4,9348.8"/>
		<path id="path62" d="M4785.9,9335c-52.5-79.3-72.6-100.6-136.5-100.6c-45.3,0-49.4,35-49.4,63.9c0,21.6,149.3,559.3,149.3,581
			c0,26.8-43.3,26.8-70,25.8v16.5c53.6,6.2,107.1,15.5,160.7,27.8l5.2-5.2l-155.5-596.4c-2.1-9.3-10.3-37.1-10.3-48.4
			c0-6.2,0-20.6,15.5-20.6c25.8,0,27.3,0.7,77.7,65.6L4785.9,9335"/>
		<path id="path64" class="st0" d="M3021.8,10923c562.5,0,1018.5,456,1018.5,1018.5c0,562.5-456,1018.5-1018.5,1018.5H1734.3
			c-562.5,0-1018.5-456-1018.5-1018.5c0-562.5,456-1018.5,1018.5-1018.5H3021.8"/>
		<path id="path66" class="st1" d="M1734.3,10945.7c549.9,0,995.8,445.8,995.8,995.8s-445.8,995.8-995.8,995.8
			c-549.9,0-995.8-445.8-995.8-995.8C738.6,11391.6,1184.4,10945.7,1734.3,10945.7"/>
		<path id="path68" class="st0" d="M1533.3,12516.4c-237.5-83-407.8-309.1-407.8-574.9c0-266.3,171-492.6,409.1-575.3
			L1533.3,12516.4"/>
		<path id="path70" class="st0" d="M2343.2,11941.5c0-266.3-170.9-492.6-409.1-575.3l1.3,1150.2
			C2172.8,12433.3,2343.2,12207.3,2343.2,11941.5"/>
		<path id="path72" class="st1" d="M415.2,10205.2c-9.3-34-22.7-79.3-22.7-95.8c0-34,24.7-40.2,73.1-40.2
			c324.5,0,334.3,297.1,334.3,360c0,104-14.9,230.7-197.2,230.7c-58.7,0-62.8-15.5-67-29.9L415.2,10205.2"/>
		<path id="path74" class="st1" d="M1744.4,10252.6c212.2,43.3,217.3,166.9,217.3,175.1c0,21.6-10.3,41.2-36,41.2
			c-55.6,0-125.7-79.3-163.8-171L1744.4,10252.6"/>
		<path id="path76" class="st1" d="M4495.3,10470.3c-113.3,0-202-202.6-216.2-385.6c-0.6-7.2,0-34,48.4-34
			c141.1,0,239,217.3,239,303.9C4566.4,10386.5,4560.2,10470.3,4495.3,10470.3"/>
		<path id="path78" class="st1" d="M1142.4,9460c212.2,43.3,217.3,166.9,217.3,175.1c0,21.6-10.3,41.2-36,41.2
			c-55.6,0-125.7-79.3-163.8-171L1142.4,9460"/>
		<path id="path80" class="st1" d="M2397.1,9284.9c109.2,0,210.1,222.5,210.1,323.4c0,49.4-28.8,69-58.7,69
			c-120.5,0-213.2-226.6-213.2-319.3C2335.3,9303.4,2369.3,9284.9,2397.1,9284.9"/>
		<path id="path82" class="st1" d="M3300.1,9351.8c0-58.7,30.9-95.8,82.4-95.8c117.4,0,198.8,213.2,198.8,323.4
			c0,53.6-22.7,98.9-72.1,98.9C3393.9,9678.4,3300.1,9473.4,3300.1,9351.8"/>
		<path id="path84" class="st1" d="M4265,9284.9c109.2,0,210.1,222.5,210.1,323.4c0,49.4-28.8,69-58.7,69
			c-120.5,0-213.2-226.6-213.2-319.3C4203.2,9303.4,4237.2,9284.9,4265,9284.9"/>
	</g>
</g>
</svg>
