<?xml version="1.0" encoding="utf-8"?>
<!-- Generator: Adobe Illustrator 21.1.0, SVG Export Plug-In . SVG Version: 6.00 Build 0)  -->
<svg version="1.1"
	 id="svg2" xmlns:cc="http://creativecommons.org/ns#" xmlns:dc="http://purl.org/dc/elements/1.1/" xmlns:rdf="http://www.w3.org/1999/02/22-rdf-syntax-ns#" xmlns:svg="http://www.w3.org/2000/svg"
	 xmlns="http://www.w3.org/2000/svg" xmlns:xlink="http://www.w3.org/1999/xlink" x="0px" y="0px" viewBox="0 0 465.7 579.7"
	 style="enable-background:new 0 0 465.7 579.7;" xml:space="preserve">
<style type="text/css">
	.st0{fill:#151316;}
	.st1{fill:none;stroke:#211C1D;stroke-width:5.6693;stroke-miterlimit:22.9256;}
	.st2{fill:#FFFFFF;}
	.st3{fill:#449EDC;}
	.st4{fill:#F5F014;}
	.st5{fill:#E32B23;}
</style>
<g id="g10" transform="matrix(1.3333333,0,0,-1.3333333,0,465.70667)">
	<g id="g12" transform="scale(0.1)">
		<path id="path14" class="st0" d="M1746.4,3062.5c963,0,1743.6-780.6,1743.6-1743.6c0-963-780.6-1743.6-1743.6-1743.6
			C783.5-424.7,2.8,356,2.8,1318.9C2.8,2281.9,783.5,3062.5,1746.4,3062.5L1746.4,3062.5"/>
		<path id="path16" class="st1" d="M1746.4,3062.5c963,0,1743.6-780.6,1743.6-1743.6c0-963-780.6-1743.6-1743.6-1743.6
			C783.5-424.7,2.8,356,2.8,1318.9C2.8,2281.9,783.5,3062.5,1746.4,3062.5z"/>
		<path id="path18" class="st2" d="M1227.2,1453L692,1222.4c-0.8,9.2-1.3,18.6-1.3,28c0,169.3,137.3,306.6,306.6,306.6
			C1088.9,1556.9,1171.1,1516.7,1227.2,1453L1227.2,1453z M997.3,1786.2c252.6,0,464.3-174.8,520.9-410l-216-94.4l-0.1,0.4
			l-220.9-97.1l-530-231.7c-56.7,85-89.8,187.1-89.8,296.9C461.4,1546.3,701.3,1786.2,997.3,1786.2L997.3,1786.2"/>
		<path id="path20" class="st2" d="M1371.7,867.1C1179.8,685,926,667.1,703,802.5l126,191.6c126.9-75.8,254.4-63.6,382.4,37
			L1371.7,867.1L1371.7,867.1"/>
		<path id="path22" class="st2" d="M1589.8,999.7l-1.3,1013.3h192v-985.9c0-9.5,1.2-17.8,13.6-22.6l167-64.9l-75.2-195.6
			l-195.6,82.8C1616,858.1,1590,903.5,1589.8,999.7L1589.8,999.7"/>
		<path id="path24" class="st3" d="M2312.7,1016.8c-72,56-118.3,143.3-118.3,241.5c0,87.3,36.6,166,95.3,221.7l-124,201
			c-124.6-98.8-204.7-251.3-204.7-422.7c0-184.7,92.9-347.7,234.5-444.8L2312.7,1016.8"/>
		<path id="path26" class="st4" d="M2396.7,1546.1c32.3,11.6,67.1,18,103.5,18c130.9,0,242.6-82.3,286.2-198l237.6,19.8
			c-57.4,236.1-270,411.5-523.8,411.5c-71.7,0-140.1-14.1-202.6-39.5L2396.7,1546.1"/>
		<path id="path28" class="st5" d="M2805.6,1243.4c-7.7-162-141.5-291-305.4-291c-25.7,0-50.6,3.2-74.5,9.2l-93.2-215.8
			c52.8-17.3,109.1-26.7,167.7-26.7c290.3,0,526.9,229.5,538.6,517L2805.6,1243.4"/>
	</g>
</g>
</svg>
