<?xml version="1.0" encoding="utf-8"?>
<!-- Generator: Adobe Illustrator 21.1.0, SVG Export Plug-In . SVG Version: 6.00 Build 0)  -->
<svg version="1.1"
	 id="svg2" xmlns:cc="http://creativecommons.org/ns#" xmlns:dc="http://purl.org/dc/elements/1.1/" xmlns:rdf="http://www.w3.org/1999/02/22-rdf-syntax-ns#" xmlns:svg="http://www.w3.org/2000/svg"
	 xmlns="http://www.w3.org/2000/svg" xmlns:xlink="http://www.w3.org/1999/xlink" x="0px" y="0px" viewBox="0 0 159 51.6"
	 style="enable-background:new 0 0 159 51.6;" xml:space="preserve">
<style type="text/css">
	.st0{fill:#1C63B7;}
	.st1{fill:#F89C22;}
</style>
<g id="g10" transform="matrix(1.3333333,0,0,-1.3333333,0,188.97333)">
	<g id="g12" transform="scale(0.1)">
		<path id="path14" class="st0" d="M517.1,1036.8h-97.3l60.8,373.8h97.3L517.1,1036.8"/>
		<path id="path16" class="st0" d="M337.9,1410.6l-92.8-257.1l-11,55.4l0,0l-32.8,168.1c0,0-4,33.7-46.2,33.7H1.8l-1.8-6.3
			c0,0,46.9-9.8,101.8-42.7l84.6-324.8h101.4l154.9,373.8H337.9"/>
		<path id="path18" class="st0" d="M996.3,1169l51.2,139.9l28.8-139.9H996.3z M1103.4,1036.8h89.4l-77.9,373.8h-78.3
			c-36.1,0-44.9-27.9-44.9-27.9l-145.2-346H948l20.3,55.5H1092L1103.4,1036.8"/>
		<path id="path20" class="st0" d="M854.2,1320.7L868,1401c0,0-42.9,16.3-87.5,16.3c-48.3,0-163-21.1-163-123.8
			c0-96.6,134.6-97.8,134.6-148.5c0-50.7-120.7-41.7-160.6-9.7l-14.5-83.9c0,0,43.5-21.1,109.9-21.1c66.4,0,166.6,34.4,166.6,128
			c0,97.2-135.8,106.3-135.8,148.5C717.7,1349.1,812.5,1343.7,854.2,1320.7"/>
		<path id="path22" class="st1" d="M234.1,1208.8l-32.8,168.1c0,0-4,33.7-46.2,33.7H1.8l-1.8-6.3c0,0,73.7-15.3,144.5-72.5
			C212.1,1277,234.1,1208.8,234.1,1208.8"/>
	</g>
</g>
</svg>
